# Blender 4.5.6 LTS
# www.blender.org
mtllib speaker.mtl
o speaker
v 0.181722 0.597542 0.487832
v 0.181717 0.203369 0.638186
v 0.181770 0.608199 0.526352
v 0.185330 0.614952 0.524515
v 0.185462 0.604285 0.485920
v 0.181838 0.192692 0.599600
v 0.185436 0.185948 0.601465
v 0.185304 0.196614 0.640059
v 0.329405 0.362339 0.760350
v 0.382389 0.420266 0.848161
v 0.378380 0.427600 0.846177
v 0.333222 0.355029 0.762409
v 0.329273 0.534400 0.712878
v 0.378517 0.522483 0.819934
v 0.382306 0.529823 0.817928
v 0.333250 0.541712 0.710823
v 0.280259 0.302614 0.693792
v 0.333222 0.355029 0.762409
v 0.329405 0.362339 0.760350
v 0.284076 0.295105 0.695913
v 0.280068 0.551635 0.625090
v 0.329273 0.534400 0.712878
v 0.333250 0.541712 0.710823
v 0.284053 0.558964 0.623049
v 0.378517 0.522483 0.819934
v 0.329405 0.362339 0.760350
v 0.378380 0.427600 0.846177
v 0.403014 0.545852 0.979466
v 0.402941 0.489345 0.995111
v 0.329273 0.534400 0.712878
v 0.280068 0.551635 0.625090
v 0.280259 0.302614 0.693792
v 0.206402 0.588145 0.531912
v 0.206419 0.223424 0.632630
v 0.329438 0.523216 0.653682
v 0.331448 0.527277 0.652599
v 0.329438 0.523216 0.653682
v 0.331440 0.527271 0.652582
v 0.329452 0.341529 0.703863
v 0.336059 0.490964 0.589984
v 0.330250 0.525590 0.651191
v 0.329524 0.471663 0.595288
v 0.329527 0.355947 0.627255
v 0.336007 0.336679 0.632630
v 0.330388 0.338290 0.702852
v 0.329479 0.345290 0.588735
v 0.335979 0.331349 0.613361
v 0.329499 0.350616 0.607986
v 0.336139 0.326001 0.594039
v 0.329464 0.461019 0.556769
v 0.329485 0.466345 0.576020
v 0.336000 0.480309 0.551468
v 0.336039 0.485639 0.570733
v 0.378517 0.522483 0.819934
v 0.403014 0.545852 0.979466
v 0.406811 0.553186 0.977482
v 0.382306 0.529823 0.817928
v 0.378380 0.427600 0.846177
v 0.406750 0.482017 0.997155
v 0.402941 0.489345 0.995111
v 0.382389 0.420266 0.848161
v 0.378299 0.480133 1.039125
v 0.378251 0.576385 1.012560
v 0.378383 0.565905 0.973908
v 0.381810 0.583337 1.010661
v 0.381942 0.572658 0.972070
v 0.378239 0.469489 1.000606
v 0.382018 0.462524 1.002461
v 0.381886 0.473191 1.041056
v 0.354017 0.322604 0.636530
v 0.331562 0.337663 0.704916
v 0.331555 0.337658 0.704899
v 0.329452 0.341529 0.703863
v 0.332958 0.336364 0.703401
v 0.336007 0.336679 0.632630
v 0.330388 0.338290 0.702852
v 0.332958 0.336364 0.703401
v 0.331555 0.337658 0.704899
v 0.330388 0.338290 0.702852
v 0.329452 0.341529 0.703863
v 0.353999 0.505056 0.586136
v 0.332878 0.527509 0.650663
v 0.336059 0.490964 0.589984
v 0.330250 0.525590 0.651191
v 0.332878 0.527509 0.650663
v 0.331440 0.527271 0.652582
v 0.330250 0.525590 0.651191
v 0.329438 0.523216 0.653682
v 0.797185 0.582471 0.492560
v 0.674066 0.523306 0.653972
v 0.674080 0.341619 0.704154
v 0.797265 0.208100 0.595918
v 0.353978 0.499731 0.566885
v 0.354138 0.494383 0.547563
v 0.336039 0.485639 0.570733
v 0.336000 0.480309 0.551468
v 0.354137 0.311927 0.597944
v 0.354177 0.317256 0.617208
v 0.336139 0.326001 0.594039
v 0.335979 0.331349 0.613361
v 0.352583 0.475171 0.563280
v 0.352642 0.485825 0.601796
v 0.346715 0.457796 0.568041
v 0.346594 0.468473 0.606627
v 0.346679 0.353844 0.596773
v 0.346739 0.364499 0.635288
v 0.352710 0.336480 0.601526
v 0.352578 0.347159 0.640117
v 0.620670 0.529899 0.818175
v 0.660631 0.544909 0.710295
v 0.611380 0.532970 0.817279
v 0.670102 0.541805 0.711123
v 0.382306 0.529823 0.817928
v 0.342609 0.544813 0.709985
v 0.333250 0.541712 0.710823
v 0.391646 0.532908 0.817081
v 0.670102 0.541805 0.711123
v 0.709903 0.562162 0.622565
v 0.660631 0.544909 0.710295
v 0.719382 0.559075 0.623407
v 0.293600 0.562037 0.622161
v 0.333250 0.541712 0.710823
v 0.342609 0.544813 0.709985
v 0.284053 0.558964 0.623049
v 0.331448 0.527277 0.652599
v 0.331440 0.527271 0.652582
v 0.336449 0.528820 0.652178
v 0.709903 0.562162 0.622565
v 0.293600 0.562037 0.622161
v 0.342609 0.544813 0.709985
v 0.783689 0.598728 0.529567
v 0.219753 0.598569 0.529053
v 0.660631 0.544909 0.710295
v 0.391646 0.532908 0.817081
v 0.611380 0.532970 0.817279
v 0.416144 0.556266 0.976617
v 0.586733 0.556310 0.976761
v 0.406811 0.553186 0.977482
v 0.391646 0.532908 0.817081
v 0.382306 0.529823 0.817928
v 0.416144 0.556266 0.976617
v 0.596005 0.553236 0.977644
v 0.611380 0.532970 0.817279
v 0.586733 0.556310 0.976761
v 0.620670 0.529899 0.818175
v 0.670374 0.527798 0.650895
v 0.649493 0.505128 0.586367
v 0.666804 0.528914 0.652479
v 0.624875 0.510321 0.584898
v 0.671956 0.527358 0.652862
v 0.670374 0.527798 0.650895
v 0.666804 0.528914 0.652479
v 0.378731 0.510254 0.584682
v 0.666804 0.528914 0.652479
v 0.671956 0.527358 0.652862
v 0.671956 0.527358 0.652862
v 0.336449 0.528820 0.652178
v 0.353999 0.505056 0.586136
v 0.332878 0.527509 0.650663
v 0.332878 0.527509 0.650663
v 0.331440 0.527271 0.652582
v 0.818235 0.604461 0.486489
v 0.818114 0.615127 0.525079
v 0.809420 0.607352 0.485715
v 0.809479 0.618007 0.524230
v 0.194029 0.617846 0.523708
v 0.194150 0.607169 0.485122
v 0.185462 0.604285 0.485920
v 0.185330 0.614952 0.524515
v 0.790073 0.202506 0.597495
v 0.666877 0.336224 0.705676
v 0.336522 0.335945 0.705432
v 0.213568 0.202341 0.596962
v 0.649454 0.499798 0.567103
v 0.649434 0.494473 0.547852
v 0.624843 0.504997 0.565651
v 0.624823 0.499671 0.546400
v 0.378711 0.504929 0.565431
v 0.378672 0.499599 0.546167
v 0.353978 0.499731 0.566885
v 0.354138 0.494383 0.547563
v 0.620929 0.572717 0.972258
v 0.620797 0.583395 1.010849
v 0.612110 0.575626 0.971502
v 0.612169 0.586269 1.010021
v 0.390510 0.586033 1.009917
v 0.390638 0.575559 0.971287
v 0.381942 0.572658 0.972070
v 0.381810 0.583337 1.010661
v 0.634673 0.498632 0.598544
v 0.612576 0.492596 0.558686
v 0.612456 0.503261 0.597276
v 0.390916 0.492546 0.558522
v 0.634613 0.487977 0.560029
v 0.390976 0.503189 0.597041
v 0.650949 0.485905 0.602054
v 0.368780 0.487904 0.559791
v 0.650901 0.475249 0.563534
v 0.368840 0.498559 0.598306
v 0.352583 0.475171 0.563280
v 0.352642 0.485825 0.601796
v 0.666877 0.336224 0.705676
v 0.329438 0.523216 0.653682
v 0.331448 0.527277 0.652599
v 0.329438 0.523216 0.653682
v 0.329452 0.341529 0.703863
v 0.181838 0.192692 0.599600
v 0.181722 0.597542 0.487832
v 0.206406 0.582309 0.492036
v 0.206498 0.207937 0.595389
v 0.202064 0.198873 0.597935
v 0.190473 0.189812 0.600449
v 0.201991 0.591380 0.489556
v 0.208408 0.586364 0.490936
v 0.213599 0.587891 0.490462
v 0.190418 0.600443 0.487049
v 0.185462 0.604285 0.485920
v 0.194150 0.607169 0.485122
v 0.821833 0.597705 0.488358
v 0.821769 0.192877 0.600197
v 0.797265 0.208100 0.595918
v 0.797185 0.582471 0.492560
v 0.801500 0.199039 0.598472
v 0.801608 0.591525 0.490024
v 0.795068 0.586518 0.491433
v 0.790104 0.588057 0.490997
v 0.813007 0.600609 0.487586
v 0.818235 0.604461 0.486489
v 0.821833 0.597705 0.488358
v 0.809420 0.607352 0.485715
v 0.790104 0.588057 0.490997
v 0.213599 0.587891 0.490462
v 0.194150 0.607169 0.485122
v 0.201991 0.591380 0.489556
v 0.190418 0.600443 0.487049
v 0.818210 0.186124 0.602035
v 0.813073 0.189976 0.600981
v 0.809521 0.183228 0.602836
v 0.809521 0.183228 0.602836
v 0.790073 0.202506 0.597495
v 0.795082 0.204254 0.597031
v 0.797265 0.208100 0.595918
v 0.194071 0.183067 0.602314
v 0.213568 0.202341 0.596962
v 0.202064 0.198873 0.597935
v 0.208604 0.203880 0.596526
v 0.206498 0.207937 0.595389
v 0.190473 0.189812 0.600449
v 0.185436 0.185948 0.601465
v 0.181838 0.192692 0.599600
v 0.329464 0.461019 0.556769
v 0.378672 0.499599 0.546167
v 0.378756 0.306722 0.599416
v 0.354138 0.494383 0.547563
v 0.336000 0.480309 0.551468
v 0.329479 0.345290 0.588735
v 0.354137 0.311927 0.597944
v 0.336139 0.326001 0.594039
v 0.624823 0.499671 0.546400
v 0.624899 0.306789 0.599632
v 0.674107 0.345380 0.589026
v 0.649440 0.312022 0.598250
v 0.667571 0.326090 0.594327
v 0.674100 0.461115 0.557078
v 0.649434 0.494473 0.547852
v 0.667432 0.480399 0.551758
v 0.336522 0.335945 0.705432
v 0.674080 0.341619 0.704154
v 0.336522 0.335945 0.705432
v 0.331562 0.337663 0.704916
v 0.352710 0.336480 0.601526
v 0.391023 0.319134 0.606378
v 0.368806 0.323776 0.605107
v 0.346679 0.353844 0.596773
v 0.346715 0.457796 0.568041
v 0.390916 0.492546 0.558522
v 0.352583 0.475171 0.563280
v 0.368780 0.487904 0.559791
v 0.612494 0.319201 0.606596
v 0.612576 0.492596 0.558686
v 0.650901 0.475249 0.563534
v 0.634613 0.487977 0.560029
v 0.656931 0.457873 0.568290
v 0.656884 0.353923 0.597027
v 0.651016 0.336560 0.601783
v 0.634638 0.323849 0.605344
v 0.674066 0.523306 0.653972
v 0.674080 0.341619 0.704154
v 0.671886 0.337774 0.705273
v 0.666804 0.528914 0.652479
v 0.666804 0.528914 0.652479
v 0.671956 0.527358 0.652862
v 0.336449 0.528820 0.652178
v 0.329524 0.471663 0.595288
v 0.378731 0.510254 0.584682
v 0.378624 0.317400 0.638008
v 0.353999 0.505056 0.586136
v 0.336059 0.490964 0.589984
v 0.329527 0.355947 0.627255
v 0.354017 0.322604 0.636530
v 0.336007 0.336679 0.632630
v 0.624875 0.510321 0.584898
v 0.624767 0.317467 0.638223
v 0.673975 0.356059 0.627617
v 0.649500 0.322677 0.636765
v 0.667439 0.336769 0.632918
v 0.673971 0.471775 0.595650
v 0.649493 0.505128 0.586367
v 0.667492 0.491054 0.590273
v 0.213599 0.587891 0.490462
v 0.790104 0.588057 0.490997
v 0.666804 0.528914 0.652479
v 0.336449 0.528820 0.652178
v 0.331448 0.527277 0.652599
v 0.208408 0.586364 0.490936
v 0.671956 0.527358 0.652862
v 0.795068 0.586518 0.491433
v 0.797185 0.582471 0.492560
v 0.674066 0.523306 0.653972
v 0.674080 0.341619 0.704154
v 0.797265 0.208100 0.595918
v 0.671886 0.337774 0.705273
v 0.795082 0.204254 0.597031
v 0.790073 0.202506 0.597495
v 0.666877 0.336224 0.705676
v 0.336522 0.335945 0.705432
v 0.213568 0.202341 0.596962
v 0.331562 0.337663 0.704916
v 0.208604 0.203880 0.596526
v 0.331448 0.527277 0.652599
v 0.206406 0.582309 0.492036
v 0.208408 0.586364 0.490936
v 0.329438 0.523216 0.653682
v 0.206498 0.207937 0.595389
v 0.329452 0.341529 0.703863
v 0.331562 0.337663 0.704916
v 0.208604 0.203880 0.596526
v 0.612124 0.459897 1.003468
v 0.612110 0.575626 0.971502
v 0.624563 0.469534 1.000750
v 0.620812 0.462792 1.002666
v 0.624516 0.565973 0.974128
v 0.620929 0.572717 0.972258
v 0.390645 0.459825 1.003235
v 0.390638 0.575559 0.971287
v 0.378239 0.469489 1.000606
v 0.382018 0.462524 1.002461
v 0.378383 0.565905 0.973908
v 0.381942 0.572658 0.972070
v 0.673919 0.534494 0.713182
v 0.620670 0.529899 0.818175
v 0.624660 0.522549 0.820149
v 0.670102 0.541805 0.711123
v 0.674041 0.362435 0.760659
v 0.624531 0.427672 0.846410
v 0.620734 0.420338 0.848394
v 0.670063 0.355123 0.762714
v 0.723199 0.551753 0.625470
v 0.670102 0.541805 0.711123
v 0.673919 0.534494 0.713182
v 0.719382 0.559075 0.623407
v 0.723210 0.302753 0.694243
v 0.674041 0.362435 0.760659
v 0.670063 0.355123 0.762714
v 0.719405 0.295414 0.696210
v 0.599932 0.489389 0.995252
v 0.624660 0.522549 0.820149
v 0.599814 0.545919 0.979684
v 0.624531 0.427672 0.846410
v 0.673919 0.534494 0.713182
v 0.674041 0.362435 0.760659
v 0.723210 0.302753 0.694243
v 0.723199 0.551753 0.625470
v 0.797198 0.223586 0.633154
v 0.797172 0.588301 0.532416
v 0.670462 0.336461 0.703711
v 0.671878 0.337768 0.705254
v 0.673082 0.338386 0.703162
v 0.674080 0.341619 0.704154
v 0.624531 0.427672 0.846410
v 0.599932 0.489389 0.995252
v 0.595962 0.482071 0.997328
v 0.620734 0.420338 0.848394
v 0.624660 0.522549 0.820149
v 0.596005 0.553236 0.977644
v 0.599814 0.545919 0.979684
v 0.620670 0.529899 0.818175
v 0.649500 0.322677 0.636765
v 0.670462 0.336461 0.703711
v 0.667439 0.336769 0.632918
v 0.673082 0.338386 0.703162
v 0.674080 0.341619 0.704154
v 0.673975 0.356059 0.627617
v 0.674066 0.523306 0.653972
v 0.674080 0.341619 0.704154
v 0.673971 0.471775 0.595650
v 0.667492 0.491054 0.590273
v 0.671886 0.337774 0.705273
v 0.671878 0.337768 0.705254
v 0.672945 0.525685 0.651501
v 0.670374 0.527798 0.650895
v 0.649493 0.505128 0.586367
v 0.672945 0.525685 0.651501
v 0.671956 0.527358 0.652862
v 0.670374 0.527798 0.650895
v 0.671956 0.527358 0.652862
v 0.671956 0.527358 0.652862
v 0.674066 0.523306 0.653972
v 0.818210 0.186124 0.602035
v 0.818269 0.196767 0.640553
v 0.821769 0.192877 0.600197
v 0.821828 0.203532 0.638712
v 0.821701 0.608383 0.526949
v 0.821833 0.597705 0.488358
v 0.818235 0.604461 0.486489
v 0.818114 0.615127 0.525079
v 0.667432 0.480399 0.551758
v 0.649454 0.499798 0.567103
v 0.667460 0.485730 0.571027
v 0.649434 0.494473 0.547852
v 0.674100 0.461115 0.557078
v 0.674131 0.466439 0.576324
v 0.674107 0.345380 0.589026
v 0.674135 0.350711 0.608295
v 0.667571 0.326090 0.594327
v 0.667419 0.331444 0.613668
v 0.649440 0.312022 0.598250
v 0.649461 0.317347 0.617501
v 0.624395 0.576639 1.012718
v 0.624431 0.480201 1.039345
v 0.624563 0.469534 1.000750
v 0.620872 0.473249 1.041243
v 0.624516 0.565973 0.974128
v 0.620812 0.462792 1.002666
v 0.620929 0.572717 0.972258
v 0.620797 0.583395 1.010849
v 0.650949 0.485905 0.602054
v 0.650901 0.475249 0.563534
v 0.656799 0.468551 0.606881
v 0.656931 0.457873 0.568290
v 0.656752 0.364601 0.635618
v 0.656884 0.353923 0.597027
v 0.650884 0.347238 0.640375
v 0.651016 0.336560 0.601783
v 0.206406 0.582309 0.492036
v 0.329438 0.523216 0.653682
v 0.206498 0.207937 0.595389
v 0.329452 0.341529 0.703863
v 0.666877 0.336224 0.705676
v 0.670462 0.336461 0.703711
v 0.671878 0.337768 0.705254
v 0.382389 0.420266 0.848161
v 0.342682 0.351937 0.763238
v 0.391661 0.417191 0.849043
v 0.333222 0.355029 0.762409
v 0.620734 0.420338 0.848394
v 0.660715 0.352032 0.763544
v 0.670063 0.355123 0.762714
v 0.611394 0.417252 0.849242
v 0.333222 0.355029 0.762409
v 0.293562 0.292222 0.696711
v 0.342682 0.351937 0.763238
v 0.284076 0.295105 0.695913
v 0.709858 0.292341 0.697098
v 0.670063 0.355123 0.762714
v 0.660715 0.352032 0.763544
v 0.719405 0.295414 0.696210
v 0.586611 0.479185 0.998120
v 0.416033 0.479139 0.997972
v 0.391661 0.417191 0.849043
v 0.611394 0.417252 0.849242
v 0.342682 0.351937 0.763238
v 0.660715 0.352032 0.763544
v 0.293562 0.292222 0.696711
v 0.709858 0.292341 0.697098
v 0.219722 0.213019 0.635552
v 0.783846 0.213162 0.636012
v 0.595962 0.482071 0.997328
v 0.611394 0.417252 0.849242
v 0.620734 0.420338 0.848394
v 0.586611 0.479185 0.998120
v 0.406750 0.482017 0.997155
v 0.391661 0.417191 0.849043
v 0.416033 0.479139 0.997972
v 0.382389 0.420266 0.848161
v 0.336522 0.335945 0.705432
v 0.624767 0.317467 0.638223
v 0.378624 0.317400 0.638008
v 0.649500 0.322677 0.636765
v 0.670462 0.336461 0.703711
v 0.336522 0.335945 0.705432
v 0.354017 0.322604 0.636530
v 0.331562 0.337663 0.704916
v 0.331555 0.337658 0.704899
v 0.332958 0.336364 0.703401
v 0.332958 0.336364 0.703401
v 0.331555 0.337658 0.704899
v 0.671886 0.337774 0.705273
v 0.671878 0.337768 0.705254
v 0.666877 0.336224 0.705676
v 0.809581 0.193883 0.641351
v 0.194131 0.193722 0.640829
v 0.194071 0.183067 0.602314
v 0.185304 0.196614 0.640059
v 0.185436 0.185948 0.601465
v 0.809521 0.183228 0.602836
v 0.818210 0.186124 0.602035
v 0.818269 0.196767 0.640553
v 0.213599 0.587891 0.490462
v 0.790104 0.588057 0.490997
v 0.666804 0.528914 0.652479
v 0.336449 0.528820 0.652178
v 0.649440 0.312022 0.598250
v 0.649461 0.317347 0.617501
v 0.624899 0.306789 0.599632
v 0.624927 0.312119 0.618900
v 0.378756 0.306722 0.599416
v 0.378776 0.312047 0.618668
v 0.354137 0.311927 0.597944
v 0.354177 0.317256 0.617208
v 0.620872 0.473249 1.041243
v 0.620812 0.462792 1.002666
v 0.612184 0.470552 1.041984
v 0.612124 0.459897 1.003468
v 0.390645 0.459825 1.003235
v 0.390525 0.470502 1.041822
v 0.381886 0.473191 1.041056
v 0.382018 0.462524 1.002461
v 0.650884 0.347238 0.640375
v 0.651016 0.336560 0.601783
v 0.634698 0.334492 0.643863
v 0.352710 0.336480 0.601526
v 0.634638 0.323849 0.605344
v 0.352578 0.347159 0.640117
v 0.612554 0.329856 0.645111
v 0.368806 0.323776 0.605107
v 0.612494 0.319201 0.606596
v 0.368854 0.334420 0.643631
v 0.390902 0.329811 0.644965
v 0.391023 0.319134 0.606378
v 0.390510 0.586033 1.009917
v 0.612184 0.470552 1.041984
v 0.612169 0.586269 1.010021
v 0.624395 0.576639 1.012718
v 0.620797 0.583395 1.010849
v 0.624431 0.480201 1.039345
v 0.620872 0.473249 1.041243
v 0.390525 0.470502 1.041822
v 0.378299 0.480133 1.039125
v 0.381886 0.473191 1.041056
v 0.378251 0.576385 1.012560
v 0.381810 0.583337 1.010661
v 0.797172 0.588301 0.532416
v 0.719382 0.559075 0.623407
v 0.723199 0.551753 0.625470
v 0.793175 0.595646 0.530426
v 0.206402 0.588145 0.531912
v 0.280068 0.551635 0.625090
v 0.284053 0.558964 0.623049
v 0.210379 0.595469 0.529853
v 0.206419 0.223424 0.632630
v 0.284076 0.295105 0.695913
v 0.280259 0.302614 0.693792
v 0.210244 0.216107 0.634710
v 0.797198 0.223586 0.633154
v 0.719405 0.295414 0.696210
v 0.793212 0.216256 0.635194
v 0.723210 0.302753 0.694243
v 0.719382 0.559075 0.623407
v 0.793175 0.595646 0.530426
v 0.783689 0.598728 0.529567
v 0.709903 0.562162 0.622565
v 0.284053 0.558964 0.623049
v 0.219753 0.598569 0.529053
v 0.210379 0.595469 0.529853
v 0.293600 0.562037 0.622161
v 0.284076 0.295105 0.695913
v 0.210244 0.216107 0.634710
v 0.219722 0.213019 0.635552
v 0.293562 0.292222 0.696711
v 0.783846 0.213162 0.636012
v 0.719405 0.295414 0.696210
v 0.709858 0.292341 0.697098
v 0.793212 0.216256 0.635194
v 0.612456 0.503261 0.597276
v 0.390902 0.329811 0.644965
v 0.612554 0.329856 0.645111
v 0.650884 0.347238 0.640375
v 0.634698 0.334492 0.643863
v 0.656752 0.364601 0.635618
v 0.656799 0.468551 0.606881
v 0.650949 0.485905 0.602054
v 0.634673 0.498632 0.598544
v 0.390976 0.503189 0.597041
v 0.352642 0.485825 0.601796
v 0.368840 0.498559 0.598306
v 0.346594 0.468473 0.606627
v 0.346739 0.364499 0.635288
v 0.352578 0.347159 0.640117
v 0.368854 0.334420 0.643631
v 0.624927 0.312119 0.618900
v 0.624843 0.504997 0.565651
v 0.378711 0.504929 0.565431
v 0.378776 0.312047 0.618668
v 0.674131 0.466439 0.576324
v 0.649454 0.499798 0.567103
v 0.667460 0.485730 0.571027
v 0.674135 0.350711 0.608295
v 0.649461 0.317347 0.617501
v 0.667419 0.331444 0.613668
v 0.329499 0.350616 0.607986
v 0.354177 0.317256 0.617208
v 0.378776 0.312047 0.618668
v 0.335979 0.331349 0.613361
v 0.329485 0.466345 0.576020
v 0.378711 0.504929 0.565431
v 0.353978 0.499731 0.566885
v 0.336039 0.485639 0.570733
v 0.809581 0.193883 0.641351
v 0.805864 0.206432 0.637925
v 0.783846 0.213162 0.636012
v 0.813133 0.200631 0.639497
v 0.219722 0.213019 0.635552
v 0.194131 0.193722 0.640829
v 0.197751 0.206257 0.637359
v 0.190533 0.200467 0.638964
v 0.185304 0.196614 0.640059
v 0.181717 0.203369 0.638186
v 0.190533 0.200467 0.638964
v 0.197751 0.206257 0.637359
v 0.181717 0.203369 0.638186
v 0.206419 0.223424 0.632630
v 0.181770 0.608199 0.526352
v 0.206402 0.588145 0.531912
v 0.197747 0.605297 0.527134
v 0.190470 0.611092 0.525545
v 0.185330 0.614952 0.524515
v 0.194029 0.617846 0.523708
v 0.821828 0.203532 0.638712
v 0.821701 0.608383 0.526949
v 0.797172 0.588301 0.532416
v 0.805848 0.605474 0.527705
v 0.813067 0.611264 0.526101
v 0.797198 0.223586 0.633154
v 0.805864 0.206432 0.637925
v 0.813133 0.200631 0.639497
v 0.194029 0.617846 0.523708
v 0.783689 0.598728 0.529567
v 0.809479 0.618007 0.524230
v 0.805848 0.605474 0.527705
v 0.813067 0.611264 0.526101
v 0.219753 0.598569 0.529053
v 0.197747 0.605297 0.527134
v 0.190470 0.611092 0.525545
v 0.809581 0.193883 0.641351
v 0.818269 0.196767 0.640553
v 0.813133 0.200631 0.639497
v 0.818269 0.196767 0.640553
v 0.821828 0.203532 0.638712
v 0.813133 0.200631 0.639497
v 0.821701 0.608383 0.526949
v 0.818114 0.615127 0.525079
v 0.813067 0.611264 0.526101
v 0.818114 0.615127 0.525079
v 0.809479 0.618007 0.524230
v 0.813067 0.611264 0.526101
v 0.206402 0.588145 0.531912
v 0.210379 0.595469 0.529853
v 0.197747 0.605297 0.527134
v 0.210379 0.595469 0.529853
v 0.219753 0.598569 0.529053
v 0.197747 0.605297 0.527134
v 0.797198 0.223586 0.633154
v 0.793212 0.216256 0.635194
v 0.805864 0.206432 0.637925
v 0.793212 0.216256 0.635194
v 0.783846 0.213162 0.636012
v 0.805864 0.206432 0.637925
v 0.219722 0.213019 0.635552
v 0.210244 0.216107 0.634710
v 0.197751 0.206257 0.637359
v 0.210244 0.216107 0.634710
v 0.206419 0.223424 0.632630
v 0.197751 0.206257 0.637359
v 0.783689 0.598728 0.529567
v 0.793175 0.595646 0.530426
v 0.805848 0.605474 0.527705
v 0.793175 0.595646 0.530426
v 0.797172 0.588301 0.532416
v 0.805848 0.605474 0.527705
vn -0.9715 0.2289 -0.0624
vn -0.9718 -0.2271 0.0634
vn -0.9715 0.2289 -0.0623
vn -0.6284 0.7493 -0.2089
vn -0.6287 -0.7487 0.2099
vn -0.8197 -0.0379 0.5716
vn -0.5817 -0.5911 0.5587
vn -0.9158 -0.1111 0.3859
vn -0.5185 -0.4588 0.7216
vn -0.8214 0.3258 0.4682
vn -0.9148 0.2929 0.2782
vn -0.5819 0.7942 0.1751
vn -0.5140 0.7649 0.3883
vn -0.7294 0.0144 0.6839
vn -0.4520 -0.3485 0.8211
vn -0.7293 0.3401 0.5937
vn -0.8214 0.3257 0.4682
vn -0.5140 0.7648 0.3884
vn -0.4548 0.7166 0.5289
vn -0.9148 0.2928 0.2782
vn -0.8197 -0.0378 0.5715
vn -0.9158 -0.1110 0.3859
vn -0.9597 0.2579 0.1114
vn -0.9593 -0.1683 0.2267
vn -0.7294 0.0145 0.6839
vn -0.6460 0.3849 0.6592
vn -0.6424 0.0062 0.7663
vn -0.5590 0.7850 0.2672
vn -0.6044 0.7944 0.0604
vn -0.9523 0.2989 0.0611
vn -0.8185 0.4663 -0.3355
vn -0.9524 0.2988 0.0611
vn -0.8222 0.5261 -0.2172
vn -0.9926 0.0906 -0.0806
vn -0.9923 -0.1220 -0.0223
vn -0.9416 0.2805 0.1865
vn -0.9926 0.0905 -0.0806
vn -0.9525 -0.2253 0.2049
vn -0.8218 -0.5677 -0.0491
vn -0.8194 -0.5671 0.0841
vn -0.9876 -0.1522 0.0389
vn -0.8179 -0.5552 0.1507
vn -0.9876 -0.1521 0.0389
vn -0.9875 0.1527 -0.0402
vn -0.8127 0.5601 -0.1605
vn -0.6191 0.7851 -0.0196
vn -0.5819 0.7942 0.1752
vn -0.6207 -0.6805 0.3895
vn -0.9593 -0.1683 0.2268
vn -0.6284 0.7492 -0.2091
vn -0.6287 -0.7488 0.2099
vn -0.9424 -0.1449 0.3014
vn -0.6075 -0.6511 0.4551
vn -0.5582 -0.5388 0.6310
vn -0.4136 -0.8928 0.1783
vn -0.8217 -0.5677 -0.0491
vn -0.3912 -0.9177 0.0695
vn -0.8193 -0.5671 0.0841
vn -0.4135 -0.8929 0.1783
vn -0.6075 -0.6511 0.4550
vn -0.9525 -0.2253 0.2050
vn -0.4158 0.8584 -0.3004
vn -0.3889 0.8216 -0.4167
vn -0.8185 0.4664 -0.3355
vn -0.8222 0.5261 -0.2171
vn -0.6587 -0.3882 -0.6445
vn -0.6991 -0.0714 -0.7115
vn -0.7004 -0.3063 -0.6447
vn -0.6625 -0.0006 -0.7490
vn -0.4225 0.8742 -0.2392
vn -0.8127 0.5602 -0.1605
vn -0.4218 -0.8747 0.2386
vn -0.8179 -0.5553 0.1507
vn -0.4218 -0.8747 0.2387
vn -0.9874 0.1527 -0.0402
vn -0.9874 0.1528 -0.0402
vn -0.9876 -0.1522 0.0390
vn 0.5824 0.7933 0.1775
vn 0.1371 0.9656 0.2211
vn 0.1397 0.9898 0.0263
vn 0.5122 0.7649 0.3907
vn -0.1380 0.9665 0.2163
vn -0.5139 0.7649 0.3883
vn -0.1396 0.9897 0.0307
vn 0.5121 0.7649 0.3908
vn 0.1181 0.9263 0.3579
vn 0.4508 0.7177 0.5308
vn -0.1219 0.9267 0.3554
vn -0.4547 0.7166 0.5289
vn -0.1478 0.9875 -0.0544
vn -0.6043 0.7945 0.0604
vn -0.5589 0.7850 0.2672
vn 0.1180 0.9263 0.3579
vn -0.1379 0.9665 0.2163
vn 0.1438 0.8759 0.4606
vn -0.1456 0.8755 0.4607
vn 0.1370 0.9656 0.2211
vn -0.1496 0.9811 -0.1230
vn 0.1491 0.9816 -0.1192
vn -0.6190 0.7852 -0.0196
vn -0.1497 0.9811 -0.1229
vn 0.6174 0.7864 -0.0190
vn 0.1398 0.9898 0.0263
vn 0.1492 0.9816 -0.1191
vn 0.3898 0.8226 -0.4139
vn 0.1879 0.9708 -0.1489
vn 0.4138 0.8591 -0.3012
vn 0.0714 0.9492 -0.3065
vn 0.1879 0.9708 -0.1488
vn 0.6062 0.7928 0.0625
vn -0.0730 0.9491 -0.3063
vn 0.1515 0.9872 -0.0506
vn 0.0713 0.9492 -0.3065
vn 0.3819 0.2730 0.8830
vn 0.6063 0.7928 0.0625
vn 0.1879 0.9709 -0.1488
vn -0.1875 0.9711 -0.1476
vn -0.3889 0.8217 -0.4167
vn -0.4157 0.8585 -0.3004
vn -0.1876 0.9711 -0.1476
vn -0.6043 0.7944 0.0604
vn 0.6287 0.7488 -0.2099
vn 0.1573 0.9517 -0.2638
vn 0.1572 0.9517 -0.2638
vn -0.1580 0.9521 -0.2618
vn -0.6284 0.7493 -0.2090
vn -0.1520 0.5347 -0.8312
vn 0.0897 0.5735 -0.8143
vn -0.0876 0.5768 -0.8122
vn 0.1484 0.5376 -0.8301
vn 0.4218 0.8747 -0.2387
vn 0.1073 0.9589 -0.2625
vn 0.4217 0.8747 -0.2387
vn 0.1073 0.9590 -0.2625
vn -0.1081 0.9576 -0.2671
vn -0.4224 0.8743 -0.2392
vn -0.4224 0.8743 -0.2393
vn 0.4218 0.8747 -0.2386
vn -0.1081 0.9576 -0.2672
vn 0.8142 0.5603 -0.1524
vn -0.4224 0.8742 -0.2392
vn -0.9415 0.2805 0.1866
vn -0.5589 0.7850 0.2673
vn -0.3819 -0.2730 -0.8830
vn -0.9415 0.2806 0.1865
vn 0.0048 -0.2651 -0.9642
vn -0.1477 -0.8756 0.4599
vn 0.1814 -0.9100 0.3728
vn -0.1478 -0.8756 0.4599
vn -0.5582 -0.5387 0.6310
vn 0.9404 -0.1443 0.3079
vn 0.9522 0.2987 0.0640
vn 0.9404 -0.1442 0.3079
vn 0.5583 -0.5394 0.6304
vn 0.1515 0.9872 -0.0505
vn 0.5597 0.7848 0.2663
vn 0.1514 0.9872 -0.0505
vn 0.1445 -0.8864 -0.4398
vn 0.0891 -0.9132 -0.3976
vn 0.4232 -0.6995 -0.5758
vn 0.4232 -0.6996 -0.5758
vn -0.1453 -0.8864 -0.4395
vn -0.4238 -0.6991 -0.5759
vn -0.0905 -0.9124 -0.3991
vn -0.6586 -0.3883 -0.6445
vn -0.7004 -0.3064 -0.6447
vn -0.6625 -0.0005 -0.7490
vn -0.4198 0.3031 -0.8555
vn -0.1521 0.5347 -0.8312
vn -0.0877 0.5767 -0.8122
vn 0.1484 0.5375 -0.8301
vn 0.4220 0.3031 -0.8544
vn 0.0898 0.5734 -0.8143
vn 0.4233 -0.6995 -0.5758
vn 0.6582 -0.3884 -0.6449
vn 0.7013 -0.3058 -0.6439
vn 0.4221 0.3031 -0.8544
vn 0.6607 -0.0006 -0.7507
vn 0.7008 -0.0708 -0.7098
vn 0.8166 0.3285 0.4747
vn 0.5824 0.7933 0.1776
vn 0.9137 0.2931 0.2813
vn 0.5122 0.7648 0.3908
vn 0.8177 -0.0363 0.5745
vn 0.9150 -0.1110 0.3878
vn 0.5817 -0.5893 0.5606
vn 0.5116 -0.4610 0.7251
vn 0.7276 0.3405 0.5955
vn 0.8165 0.3285 0.4747
vn 0.4509 0.7176 0.5308
vn 0.7298 0.0143 0.6836
vn 0.5116 -0.4609 0.7251
vn 0.4455 -0.3472 0.8253
vn 0.9588 -0.1692 0.2284
vn 0.9138 0.2930 0.2813
vn 0.9601 0.2565 0.1111
vn 0.9150 -0.1109 0.3878
vn 0.8166 0.3284 0.4747
vn 0.7298 0.0144 0.6835
vn 0.7277 0.3405 0.5955
vn 0.6440 0.0054 0.7650
vn 0.6409 0.3862 0.6634
vn 0.4158 -0.8905 0.1847
vn 0.8191 -0.5668 0.0889
vn 0.6051 -0.6513 0.4580
vn 0.9516 -0.2235 0.2111
vn 0.9587 -0.1693 0.2284
vn 0.6185 -0.6817 0.3909
vn 0.9138 0.2931 0.2813
vn 0.9601 0.2566 0.1111
vn 0.8207 -0.5688 -0.0542
vn 0.4157 -0.8905 0.1847
vn 0.3922 -0.9173 0.0694
vn 0.8191 -0.5668 0.0888
vn 0.9516 -0.2235 0.2110
vn 0.9921 -0.1232 -0.0243
vn 0.9925 0.0899 -0.0824
vn 0.8187 0.4648 -0.3371
vn 0.5583 -0.5393 0.6305
vn 0.6050 -0.6513 0.4580
vn 0.8224 0.5266 -0.2154
vn 0.4139 0.8590 -0.3013
vn 0.3899 0.8226 -0.4140
vn 0.9522 0.2988 0.0640
vn 0.8224 0.5266 -0.2153
vn 0.9423 0.2796 0.1842
vn 0.5597 0.7847 0.2663
vn 0.6284 -0.7493 0.2089
vn 0.6284 -0.7493 0.2090
vn 0.9715 -0.2289 0.0623
vn 0.9718 0.2271 -0.0634
vn 0.6287 0.7487 -0.2099
vn 0.8142 0.5602 -0.1523
vn 0.4219 0.8747 -0.2386
vn 0.9875 0.1505 -0.0460
vn 0.9875 -0.1527 0.0402
vn 0.9874 -0.1528 0.0402
vn 0.8188 -0.5527 0.1551
vn 0.4225 -0.8742 0.2392
vn 0.9874 -0.1527 0.0402
vn 0.9874 -0.1528 0.0401
vn 0.6607 -0.0006 -0.7506
vn 0.6583 -0.3884 -0.6449
vn 0.7013 -0.3058 -0.6440
vn 0.7008 -0.0709 -0.7098
vn 0.4157 -0.8906 0.1847
vn -0.5817 -0.5911 0.5588
vn -0.1338 -0.7197 0.6812
vn -0.1392 -0.8347 0.5328
vn 0.5817 -0.5894 0.5606
vn 0.1306 -0.7192 0.6825
vn 0.1435 -0.8328 0.5346
vn -0.5184 -0.4588 0.7216
vn -0.1251 -0.6151 0.7784
vn -0.1339 -0.7197 0.6812
vn -0.4520 -0.3486 0.8211
vn 0.1217 -0.6153 0.7788
vn 0.4454 -0.3472 0.8253
vn 0.1501 -0.9036 0.4012
vn -0.1490 -0.9053 0.3977
vn -0.1392 -0.8348 0.5327
vn 0.1435 -0.8329 0.5346
vn 0.1305 -0.7192 0.6824
vn -0.1250 -0.6151 0.7784
vn -0.1460 -0.5131 0.8458
vn 0.1434 -0.5135 0.8460
vn 0.6184 -0.6817 0.3909
vn -0.6206 -0.6805 0.3895
vn -0.1491 -0.9053 0.3977
vn 0.0725 -0.9718 0.2244
vn -0.0727 -0.9718 0.2245
vn 0.3921 -0.9173 0.0695
vn -0.1866 -0.9097 0.3709
vn -0.3911 -0.9177 0.0696
vn -0.6074 -0.6511 0.4551
vn -0.1867 -0.9097 0.3709
vn -0.4135 -0.8929 0.1784
vn 0.1459 -0.8726 0.4661
vn 0.1580 -0.9521 0.2618
vn -0.1573 -0.9517 0.2638
vn -0.1572 -0.9517 0.2638
vn 0.1444 -0.8864 -0.4398
vn -0.1452 -0.8864 -0.4395
vn -0.0904 -0.9124 -0.3991
vn 0.0890 -0.9133 -0.3975
vn 0.4224 -0.8743 0.2392
vn 0.1081 -0.9576 0.2671
vn 0.4224 -0.8743 0.2393
vn -0.1073 -0.9590 0.2624
vn -0.1073 -0.9589 0.2625
vn -0.4217 -0.8747 0.2387
vn -0.1573 -0.9517 0.2639
vn 0.1080 -0.9576 0.2671
vn -0.1073 -0.9590 0.2625
vn -0.0048 0.2651 0.9642
vn -0.0047 0.2651 0.9642
vn -0.0049 0.2651 0.9642
vn 0.4134 0.6870 0.5976
vn -0.6460 0.3850 0.6592
vn -0.4120 0.6872 0.5983
vn -0.6424 0.0061 0.7664
vn -0.7294 0.0145 0.6840
vn -0.4111 -0.2862 0.8655
vn 0.6440 0.0053 0.7650
vn 0.4455 -0.3471 0.8253
vn 0.4097 -0.2851 0.8665
vn 0.7297 0.0143 0.6836
vn 0.4133 0.6870 0.5976
vn 0.1439 0.8759 0.4606
vn -0.4120 0.6873 0.5983
vn -0.1219 0.9267 0.3555
vn -0.4110 -0.2863 0.8655
vn -0.1461 -0.5130 0.8458
vn -0.1251 -0.6151 0.7785
vn 0.1435 -0.5134 0.8460
vn 0.1217 -0.6153 0.7789
vn 0.4096 -0.2851 0.8666
vt 0.926705 4.611140
vt 0.966705 4.191140
vt 0.966705 4.611140
vt 0.966705 4.618210
vt 0.926705 4.618210
vt 0.926705 4.191140
vt 0.926705 4.184070
vt 0.966705 4.184070
vt 1.126700 4.311920
vt 1.226700 4.344280
vt 1.226700 4.351860
vt 1.126700 4.304300
vt 1.126700 4.490350
vt 1.226700 4.450410
vt 1.226700 4.458000
vt 1.126700 4.497980
vt 1.046700 4.271990
vt 1.046700 4.264320
vt 1.046700 4.530290
vt 1.046700 4.537960
vt 1.386700 4.430440
vt 1.386700 4.371840
vt 0.966705 4.590260
vt 0.966705 4.212020
vt 1.066700 4.499450
vt 1.066700 4.495360
vt 0.996705 4.481140
vt 1.064870 4.498250
vt 0.996705 4.461140
vt 0.996705 4.341140
vt 1.066700 4.306920
vt 0.996705 4.321140
vt 1.064870 4.304030
vt 0.956705 4.341140
vt 0.976705 4.321140
vt 0.976705 4.341140
vt 0.956705 4.321140
vt 0.956705 4.461140
vt 0.976705 4.461140
vt 0.956705 4.481140
vt 0.976705 4.481140
vt 1.386700 4.438000
vt 1.386700 4.364270
vt 1.426700 4.351140
vt 1.426700 4.451140
vt 1.386700 4.451140
vt 1.426700 4.458210
vt 1.386700 4.458210
vt 1.386700 4.351140
vt 1.386700 4.344070
vt 1.426700 4.344070
vt 1.066700 4.302830
vt 1.064870 4.301910
vt 0.996705 4.306500
vt 1.064870 4.500360
vt 0.996705 4.495780
vt 0.926705 4.595360
vt 0.926705 4.206920
vt 0.976705 4.495780
vt 0.956705 4.495780
vt 0.976705 4.306500
vt 0.956705 4.306500
vt 0.966705 4.455140
vt 1.006700 4.473140
vt 0.966705 4.473140
vt 1.006700 4.455140
vt 0.966705 4.347140
vt 1.006700 4.347140
vt 0.966705 4.329140
vt 1.006700 4.329140
vt 1.295920 4.351140
vt 1.335740 4.451140
vt 1.286580 4.351140
vt 1.345120 4.451140
vt 1.057490 4.351140
vt 1.017670 4.451140
vt 1.008280 4.451140
vt 1.066830 4.351140
vt 1.384890 4.531140
vt 1.394330 4.531140
vt 0.968515 4.531140
vt 0.959076 4.531140
vt 1.011510 4.511140
vt 1.006480 4.511150
vt 1.006480 4.511140
vt 1.458700 4.611140
vt 0.894707 4.611140
vt 1.091410 4.191140
vt 1.262000 4.191140
vt 1.082100 4.191140
vt 1.271310 4.191140
vt 1.324400 4.581140
vt 1.341890 4.511140
vt 1.345450 4.512970
vt 1.299780 4.581140
vt 1.346930 4.511150
vt 1.053630 4.581140
vt 1.346930 4.511140
vt 1.029010 4.581140
vt 1.007960 4.512970
vt 1.493100 4.611140
vt 1.493100 4.651140
vt 1.484400 4.651140
vt 1.484400 4.611140
vt 0.869012 4.611140
vt 0.869012 4.651140
vt 0.860310 4.651140
vt 0.860310 4.611140
vt 1.464970 4.651140
vt 0.888438 4.651140
vt 1.324400 4.621140
vt 1.299780 4.601140
vt 1.324400 4.601140
vt 1.299780 4.621140
vt 1.053630 4.601140
vt 1.053630 4.621140
vt 1.029010 4.601140
vt 1.029010 4.621140
vt 1.296180 4.151140
vt 1.296180 4.191140
vt 1.287470 4.191140
vt 1.287470 4.151140
vt 1.065940 4.151140
vt 1.065940 4.191140
vt 1.057230 4.191140
vt 1.057230 4.151140
vt 1.309630 4.571140
vt 1.287470 4.611140
vt 1.287470 4.571140
vt 1.065940 4.611140
vt 1.309630 4.611140
vt 1.065940 4.571140
vt 1.325850 4.571140
vt 1.043780 4.611140
vt 1.325850 4.611140
vt 1.043780 4.571140
vt 1.027560 4.611140
vt 1.027560 4.571140
vt 1.349010 4.495360
vt 1.346930 4.499450
vt 1.349010 4.306920
vt 1.496700 4.191140
vt 1.496700 4.611140
vt 1.472090 4.595360
vt 1.472090 4.206920
vt 1.476440 4.197600
vt 1.488000 4.188210
vt 1.476440 4.604670
vt 1.470000 4.599450
vt 1.464970 4.601140
vt 1.488000 4.614070
vt 1.493100 4.618210
vt 1.484400 4.621140
vt 0.856705 4.611140
vt 0.856705 4.191140
vt 0.881320 4.206920
vt 0.881320 4.595360
vt 0.876969 4.197600
vt 0.876969 4.604670
vt 0.883405 4.599450
vt 0.888438 4.601140
vt 0.865408 4.614070
vt 0.860310 4.618210
vt 0.869012 4.621140
vt 0.860310 4.184070
vt 0.865408 4.188210
vt 0.869012 4.181140
vt 0.888438 4.201140
vt 0.883405 4.202830
vt 1.484400 4.181140
vt 1.464970 4.201140
vt 1.470000 4.202830
vt 1.493100 4.184070
vt 1.349010 4.461140
vt 1.299780 4.501140
vt 1.299780 4.301140
vt 1.324400 4.495780
vt 1.342420 4.481140
vt 1.349010 4.341140
vt 1.324400 4.306500
vt 1.342420 4.321140
vt 1.053630 4.501140
vt 1.053630 4.301140
vt 1.004400 4.341140
vt 1.029010 4.306500
vt 1.010990 4.321140
vt 1.004400 4.461140
vt 1.029010 4.495780
vt 1.010990 4.481140
vt 1.341890 4.301140
vt 1.011510 4.301140
vt 1.346930 4.302830
vt 1.325850 4.329140
vt 1.287470 4.311140
vt 1.309630 4.315960
vt 1.331780 4.347140
vt 1.331780 4.455140
vt 1.287470 4.491140
vt 1.325850 4.473140
vt 1.309630 4.486320
vt 1.065940 4.311140
vt 1.065940 4.491140
vt 1.027560 4.473140
vt 1.043780 4.486320
vt 1.021630 4.455140
vt 1.021630 4.347140
vt 1.027560 4.329140
vt 1.043780 4.315960
vt 1.004400 4.306920
vt 1.004400 4.495360
vt 1.006480 4.302830
vt 1.011510 4.501140
vt 1.006480 4.499450
vt 1.341890 4.501140
vt 1.065940 4.341140
vt 1.065940 4.461140
vt 1.053630 4.351140
vt 1.057230 4.344070
vt 1.053630 4.451140
vt 1.057230 4.458210
vt 1.287470 4.341140
vt 1.287470 4.461140
vt 1.299780 4.351140
vt 1.296180 4.344070
vt 1.299780 4.451140
vt 1.296180 4.458210
vt 1.226700 4.490350
vt 1.126700 4.458000
vt 1.126700 4.450410
vt 1.226700 4.497980
vt 1.226700 4.311920
vt 1.126700 4.351860
vt 1.126700 4.344280
vt 1.226700 4.304300
vt 1.306700 4.530290
vt 1.306700 4.537960
vt 1.306700 4.271990
vt 1.306700 4.264320
vt 0.966705 4.371840
vt 0.966705 4.430440
vt 1.386700 4.212020
vt 1.386700 4.590260
vt 1.288530 4.301910
vt 1.288530 4.304030
vt 1.286710 4.302830
vt 1.286700 4.306920
vt 0.966705 4.364270
vt 0.966705 4.438000
vt 1.356700 4.321140
vt 1.356700 4.306500
vt 1.356700 4.341140
vt 1.286700 4.495360
vt 1.356700 4.461140
vt 1.356700 4.481140
vt 1.286700 4.302830
vt 1.288530 4.498250
vt 1.288530 4.500360
vt 1.356700 4.495780
vt 1.286710 4.499450
vt 1.286700 4.499450
vt 1.386700 4.184070
vt 1.426700 4.184070
vt 1.426700 4.191140
vt 1.386700 4.191140
vt 1.386700 4.611140
vt 1.426700 4.611140
vt 1.426700 4.618210
vt 1.386700 4.618210
vt 1.396700 4.481140
vt 1.376700 4.495780
vt 1.376700 4.481140
vt 1.396700 4.495780
vt 1.396700 4.461140
vt 1.376700 4.461140
vt 1.396700 4.341140
vt 1.376700 4.341140
vt 1.396700 4.321140
vt 1.376700 4.321140
vt 1.396700 4.306500
vt 1.376700 4.306500
vt 0.926705 4.451140
vt 0.926705 4.351140
vt 0.966705 4.351140
vt 0.926705 4.344070
vt 0.966705 4.451140
vt 0.966705 4.344070
vt 0.966705 4.458210
vt 0.926705 4.458210
vt 1.346700 4.455140
vt 1.386700 4.473140
vt 1.346700 4.473140
vt 1.386700 4.455140
vt 1.346700 4.347140
vt 1.386700 4.347140
vt 1.346700 4.329140
vt 1.386700 4.329140
vt 1.426700 4.206920
vt 1.426700 4.595360
vt 1.472090 4.590260
vt 1.394330 4.537960
vt 1.398240 4.530290
vt 1.468170 4.597950
vt 0.881320 4.590260
vt 0.955166 4.530290
vt 0.959076 4.537960
vt 0.885241 4.597950
vt 0.881320 4.212020
vt 0.959076 4.264320
vt 0.955166 4.271990
vt 0.885241 4.204320
vt 1.472090 4.212020
vt 1.394330 4.264320
vt 1.468170 4.204320
vt 1.398240 4.271990
vt 1.458700 4.601140
vt 1.384890 4.541140
vt 0.894707 4.601140
vt 0.968515 4.541140
vt 0.894707 4.201140
vt 0.968515 4.261140
vt 1.458700 4.201140
vt 1.384890 4.261140
vt 1.480790 4.194070
vt 0.872617 4.194070
vt 0.872617 4.608210
vt 1.480790 4.608210
s 1
usemtl Speaker1Mtl
f 1/1/1 2/2/2 3/3/3
f 4/4/4 1/1/1 3/3/3
f 1/1/1 4/4/4 5/5/4
f 2/2/2 1/1/1 6/6/2
f 7/7/5 2/2/2 6/6/2
f 2/2/2 7/7/5 8/8/5
f 9/9/6 10/10/7 11/11/8
f 10/10/7 9/9/6 12/12/9
f 13/13/10 14/14/11 15/15/12
f 15/15/12 16/16/13 13/13/10
f 17/17/14 18/12/9 19/9/6
f 18/12/9 17/17/14 20/18/15
f 21/19/16 22/13/17 23/16/18
f 23/16/18 24/20/19 21/19/16
f 25/14/20 26/9/21 27/11/22
f 27/11/22 28/21/23 25/14/20
f 28/21/23 27/11/22 29/22/24
f 26/9/21 25/14/20 30/13/17
f 26/9/21 30/13/17 31/19/16
f 26/9/21 31/19/16 32/17/25
f 32/17/25 31/19/16 33/23/26
f 32/17/25 33/23/26 34/24/27
f 36/25/28 38/25/29 37/26/30
f 40/27/31 37/26/32 41/28/33
f 37/26/32 40/27/31 42/29/34
f 43/30/35 35/26/36 42/29/37
f 39/31/38 35/26/36 43/30/35
f 44/32/39 39/31/38 43/30/35
f 39/31/38 44/32/39 45/33/40
f 46/34/41 47/35/42 48/36/43
f 47/35/42 46/34/41 49/37/42
f 48/36/43 50/38/44 46/34/41
f 48/36/43 51/39/44 50/38/44
f 51/39/44 52/40/45 50/38/44
f 53/41/45 52/40/45 51/39/44
f 54/14/11 55/21/23 56/42/46
f 56/42/46 57/15/47 54/14/11
f 58/11/8 59/43/48 60/22/49
f 59/43/48 58/11/8 61/10/7
f 62/44/2 63/45/3 64/46/3
f 64/46/3 63/45/3 65/47/4
f 65/47/4 66/48/50 64/46/3
f 62/44/2 64/46/3 67/49/2
f 68/50/51 62/44/2 67/49/2
f 62/44/2 68/50/51 69/51/51
f 73/31/52 72/52/53 71/52/54
f 74/53/55 75/32/56 70/54/57
f 75/32/56 74/53/55 76/33/58
f 79/33/40 77/53/59 78/52/60
f 80/31/61 79/33/40 78/52/60
f 82/55/62 81/56/63 83/27/64
f 83/27/64 84/28/33 82/55/62
f 85/55/62 87/28/65 86/25/29
f 87/28/65 88/26/30 86/25/29
f 89/57/66 91/31/67 90/26/68
f 89/57/66 92/58/69 91/31/67
f 93/59/70 94/60/70 95/41/71
f 95/41/71 94/60/70 96/40/71
f 98/61/72 99/37/73 97/62/74
f 99/37/73 98/61/72 100/35/73
f 103/63/75 102/64/45 101/65/45
f 102/64/45 103/63/75 104/66/76
f 105/67/41 104/66/76 103/63/75
f 104/66/76 105/67/41 106/68/77
f 107/69/42 106/68/77 105/67/41
f 106/68/77 107/69/42 108/70/42
f 109/71/78 110/72/79 111/73/80
f 110/72/79 109/71/78 112/74/81
f 113/75/47 114/76/82 115/77/83
f 114/76/82 113/75/47 116/78/84
f 117/74/85 118/79/86 119/72/79
f 118/79/86 117/74/85 120/80/87
f 121/81/88 122/77/83 123/76/82
f 122/77/83 121/81/88 124/82/89
f 127/83/90 126/84/91 125/85/92
f 128/79/93 129/81/88 130/76/94
f 131/86/95 129/81/88 128/79/93
f 131/86/95 132/87/96 129/81/88
f 128/79/93 130/76/94 133/72/97
f 133/72/97 130/76/94 134/78/84
f 133/72/97 134/78/84 135/73/80
f 136/88/98 135/73/80 134/78/84
f 136/88/98 137/89/99 135/73/80
f 138/90/100 139/78/84 140/75/12
f 139/78/84 138/90/100 141/88/101
f 142/91/102 143/73/103 144/89/104
f 143/73/103 142/91/102 145/71/78
f 147/92/105 148/93/106 146/94/107
f 148/93/106 147/92/105 149/95/108
f 151/94/107 152/93/109 150/96/110
f 153/97/111 154/93/112 149/95/113
s 0
f 155/98/114 156/96/115 148/93/116
s 1
f 157/83/117 154/93/112 153/97/111
f 157/83/117 153/97/111 158/99/118
f 158/99/118 159/100/119 157/83/117
f 157/83/120 160/100/119 161/84/121
f 163/101/122 162/102/122 164/103/123
f 164/103/123 165/104/124 163/101/122
f 166/105/125 165/104/124 164/103/123
f 166/105/125 164/103/123 167/106/125
f 168/107/126 166/105/125 167/106/125
f 166/105/125 168/107/126 169/108/126
f 170/109/127 172/83/128 171/93/129
f 170/109/127 173/110/130 172/83/128
f 175/111/131 176/112/132 174/113/133
f 176/112/132 175/111/131 177/114/134
f 178/115/135 176/112/132 177/114/134
f 178/115/135 177/114/134 179/116/135
f 178/115/135 179/116/135 180/117/136
f 180/117/136 179/116/135 181/118/137
f 183/119/122 182/120/122 184/121/124
f 184/121/124 185/122/124 183/119/122
f 186/123/125 185/122/124 184/121/124
f 186/123/125 184/121/124 187/124/125
f 186/123/125 187/124/125 188/125/4
f 188/125/4 189/126/126 186/123/125
f 190/127/138 191/128/134 192/129/134
f 193/130/135 192/129/134 191/128/134
f 191/128/134 190/127/138 194/131/131
f 192/129/134 193/130/135 195/132/139
f 196/133/140 194/131/131 190/127/138
f 197/134/70 195/132/139 193/130/135
f 194/131/131 196/133/140 198/135/140
f 195/132/139 197/134/70 199/136/141
f 200/137/71 199/136/141 197/134/70
f 199/136/141 200/137/71 201/138/71
s 0
f 203/139/142 204/140/143 205/139/144
f 203/139/145 206/141/38 205/139/144
s 1
f 207/142/146 208/143/146 209/144/146
f 210/145/146 207/142/146 209/144/146
f 211/146/146 207/142/146 210/145/146
f 207/142/146 211/146/146 212/147/146
f 208/143/146 213/148/146 209/144/146
f 214/149/146 209/144/146 213/148/146
f 215/150/146 214/149/146 213/148/146
f 213/148/146 208/143/146 216/151/146
f 208/143/146 217/152/146 216/151/146
f 217/152/146 218/153/146 216/151/146
f 219/154/146 220/155/146 221/156/146
f 222/157/146 219/154/146 221/156/146
f 220/155/146 223/158/146 221/156/146
f 224/159/146 219/154/146 222/157/146
f 222/157/146 225/160/146 224/159/146
f 225/160/146 226/161/146 224/159/146
f 219/154/146 224/159/146 227/162/146
f 228/163/146 229/154/146 227/162/146
f 230/164/146 228/163/146 227/162/146
f 224/159/146 230/164/146 227/162/146
f 230/164/146 224/159/146 231/161/146
f 232/150/146 230/164/146 231/161/146
f 230/164/146 232/150/146 233/153/146
f 234/148/146 233/153/146 232/150/146
f 233/153/146 234/148/146 235/151/146
f 220/155/146 236/165/146 237/166/146
f 236/165/146 238/167/146 237/166/146
f 223/158/146 220/155/146 237/166/146
f 239/167/146 223/158/146 237/166/146
f 223/158/146 239/167/146 240/168/146
f 240/168/146 241/169/146 223/158/146
f 241/169/146 242/156/146 223/158/146
f 243/170/146 240/168/146 239/167/146
f 240/168/146 243/170/146 244/171/146
f 243/170/146 245/146/146 244/171/146
f 246/172/146 244/171/146 245/146/146
f 247/145/146 246/172/146 245/146/146
f 245/146/146 243/170/146 248/147/146
f 243/170/146 249/173/146 248/147/146
f 249/173/146 250/142/146 248/147/146
f 251/174/146 252/175/146 253/176/146
f 252/175/146 251/174/146 254/177/146
f 254/177/146 251/174/146 255/178/146
f 251/174/146 253/176/146 256/179/146
f 257/180/146 256/179/146 253/176/146
f 256/179/146 257/180/146 258/181/146
f 259/182/146 253/176/146 252/175/146
f 259/182/146 260/183/146 253/176/146
f 261/184/146 260/183/146 259/182/146
f 260/183/146 261/184/146 262/185/146
f 262/185/146 261/184/146 263/186/146
f 261/184/146 259/182/146 264/187/146
f 264/187/146 259/182/146 265/188/146
f 264/187/146 265/188/146 266/189/146
s 0
f 267/190/147 202/191/148 269/190/114
f 267/190/149 270/192/150 269/190/114
s 1
f 271/193/146 272/194/146 273/195/146
f 274/196/146 272/194/146 271/193/146
f 275/197/146 272/194/146 274/196/146
f 275/197/146 276/198/146 272/194/146
f 277/199/146 276/198/146 275/197/146
f 276/198/146 277/199/146 278/200/146
f 272/194/146 276/198/146 279/201/146
f 280/202/146 279/201/146 276/198/146
f 281/203/146 280/202/146 282/204/146
f 283/205/146 280/202/146 281/203/146
f 280/202/146 283/205/146 279/201/146
f 279/201/146 283/205/146 284/206/146
f 279/201/146 284/206/146 285/207/146
f 279/201/146 285/207/146 286/208/146
s 0
f 288/209/151 287/210/152 268/209/114
f 288/209/153 289/211/154 268/209/114
f 291/212/155 292/213/156 290/212/114
f 291/212/157 293/214/117 290/212/114
s 1
f 294/174/146 295/175/146 296/176/146
f 295/175/146 294/174/146 297/177/146
f 297/177/146 294/174/146 298/178/146
f 294/174/146 296/176/146 299/179/146
f 300/180/146 299/179/146 296/176/146
f 299/179/146 300/180/146 301/181/146
f 302/182/146 296/176/146 295/175/146
f 302/182/146 303/183/146 296/176/146
f 304/184/146 303/183/146 302/182/146
f 303/183/146 304/184/146 305/185/146
f 305/185/146 304/184/146 306/186/146
f 304/184/146 302/182/146 307/187/146
f 307/187/146 302/182/146 308/188/146
f 307/187/146 308/188/146 309/189/146
f 310/150/158 313/214/159 314/140/160
f 310/150/158 314/140/160 315/149/161
f 311/161/162 316/213/163 312/212/164
f 316/213/163 311/161/162 317/160/163
f 316/213/163 317/160/163 318/157/165
f 318/157/165 319/210/166 316/213/163
f 321/156/167 322/211/168 320/209/67
f 322/211/168 321/156/167 323/169/168
f 322/211/168 323/169/168 324/168/169
f 322/211/168 324/168/169 325/191/170
f 327/171/171 328/192/172 326/190/173
f 328/192/172 327/171/171 329/172/172
f 330/140/174 331/144/175 332/149/174
f 331/144/175 330/140/174 333/139/176
f 336/192/177 334/145/178 335/141/179
f 334/145/178 336/192/177 337/172/177
f 338/215/146 339/216/146 340/217/146
f 338/215/146 340/217/146 341/218/146
f 340/217/146 339/216/146 342/219/146
f 342/219/146 339/216/146 343/220/146
f 339/216/146 338/215/146 344/221/146
f 339/216/146 344/221/146 345/222/146
f 344/221/146 346/223/146 345/222/146
f 346/223/146 344/221/146 347/224/146
f 345/222/146 346/223/146 348/225/146
f 345/222/146 348/225/146 349/226/146
f 350/227/180 351/228/181 352/229/182
f 351/228/181 350/227/180 353/230/183
f 354/231/184 355/232/185 356/233/186
f 356/233/186 357/234/187 354/231/184
f 358/235/188 359/230/183 360/227/189
f 359/230/183 358/235/188 361/236/190
f 362/237/191 363/231/184 364/234/192
f 364/234/192 365/238/193 362/237/191
f 366/239/194 367/229/195 368/240/196
f 367/229/195 366/239/194 369/232/197
f 369/232/197 370/227/198 367/229/195
f 370/227/198 369/232/197 371/231/184
f 372/237/199 370/227/198 371/231/184
f 372/237/199 373/235/200 370/227/198
f 374/241/201 373/235/200 372/237/199
f 374/241/201 375/242/202 373/235/200
f 376/243/203 378/244/204 377/245/205
f 378/244/204 379/246/206 377/245/205
f 380/232/185 381/239/207 382/247/208
f 382/247/208 383/233/186 380/232/185
f 384/229/209 385/248/102 386/240/210
f 385/248/102 384/229/209 387/228/78
f 390/249/211 389/243/212 388/250/213
f 389/243/212 390/249/211 391/244/214
f 390/249/211 392/246/215 391/244/214
f 392/246/215 390/249/211 393/251/216
f 394/252/152 395/246/153 396/253/217
f 396/253/217 395/246/153 393/251/216
f 394/252/152 396/253/217 397/254/218
f 398/255/219 399/245/220 392/246/206
f 397/254/218 400/256/221 394/252/152
f 397/254/218 401/257/222 400/256/221
f 401/257/222 397/254/218 402/258/223
f 394/252/224 403/256/225 404/259/115
f 403/256/225 405/257/222 404/259/115
s 0
f 408/252/226 407/259/114 406/260/227
s 1
f 410/261/228 409/262/229 411/263/230
f 411/263/230 412/264/230 410/261/228
f 411/263/230 413/265/231 412/264/230
f 413/265/231 411/263/230 414/266/231
f 413/265/231 414/266/231 415/267/122
f 415/267/122 416/268/232 413/265/231
f 417/269/233 418/270/234 419/271/233
f 418/270/234 417/269/233 420/272/138
f 419/271/233 421/273/235 417/269/233
f 421/273/235 419/271/233 422/274/235
f 422/274/235 423/275/236 421/273/235
f 422/274/235 424/276/237 423/275/236
f 424/276/237 425/277/238 423/275/236
f 426/278/238 425/277/238 424/276/237
f 426/278/238 427/279/239 425/277/238
f 428/280/239 427/279/239 426/278/238
f 429/281/231 430/282/230 431/283/230
f 432/284/229 431/283/230 430/282/230
f 429/281/231 431/283/230 433/285/231
f 431/283/230 432/284/229 434/286/228
f 429/281/231 433/285/231 435/287/232
f 435/287/232 436/288/122 429/281/231
f 439/289/235 438/290/233 437/291/233
f 438/290/233 439/289/235 440/292/235
f 441/293/240 440/292/235 439/289/235
f 440/292/235 441/293/240 442/294/241
f 443/295/238 442/294/241 441/293/240
f 442/294/241 443/295/238 444/296/238
f 447/297/242 445/298/243 446/252/244
f 447/297/242 446/252/244 448/246/245
f 449/83/148 450/100/246 451/84/220
f 452/71/247 453/72/248 454/73/249
f 453/72/248 452/71/247 455/74/9
f 456/75/250 457/76/251 458/77/187
f 457/76/251 456/75/250 459/78/252
f 460/74/253 461/79/254 462/72/255
f 461/79/254 460/74/253 463/80/256
f 464/81/257 465/77/187 466/76/251
f 465/77/187 464/81/257 467/82/258
f 468/88/259 469/89/260 470/73/261
f 468/88/259 470/73/261 471/78/262
f 472/72/248 471/78/262 470/73/261
f 472/72/248 473/76/263 471/78/262
f 474/79/264 473/76/263 472/72/248
f 474/79/264 475/81/257 473/76/263
f 476/86/265 475/81/257 474/79/264
f 476/86/265 477/87/266 475/81/257
f 478/90/267 479/78/252 480/75/250
f 479/78/252 478/90/267 481/88/259
f 482/91/268 483/73/261 484/89/269
f 483/73/261 482/91/268 485/71/7
f 449/83/148 486/93/147 487/97/270
f 487/97/270 486/93/147 488/95/271
f 489/99/272 449/83/148 487/97/270
f 449/83/148 489/99/272 490/100/246
f 491/93/273 492/92/274 488/95/271
f 493/98/54 494/96/275 491/93/276
f 492/92/274 491/93/273 495/94/59
f 496/94/277 491/93/276 497/96/275
f 500/83/278 499/84/220 498/85/219
f 501/105/279 502/104/280 503/103/281
f 504/101/51 503/103/281 502/104/280
f 503/103/281 504/101/51 505/102/51
f 501/105/279 503/103/281 506/106/279
f 501/105/279 506/106/279 507/107/229
f 507/107/229 508/108/228 501/105/279
f 509/109/282 510/110/283 511/83/284
f 509/109/282 511/83/284 512/93/285
f 514/117/286 515/116/287 513/118/288
f 516/115/287 515/116/287 514/117/286
f 516/115/287 517/114/289 515/116/287
f 516/115/287 518/112/290 517/114/289
f 518/112/290 519/111/291 517/114/289
f 519/111/291 518/112/290 520/113/291
f 523/123/279 522/125/228 521/126/228
f 522/125/228 523/123/279 524/124/279
f 523/123/279 525/121/292 524/124/279
f 523/123/279 526/122/280 525/121/292
f 527/119/51 525/121/292 526/122/280
f 525/121/292 527/119/51 528/120/51
f 531/136/239 530/137/238 529/138/238
f 530/137/238 531/136/239 533/134/239
f 535/132/293 533/134/239 531/136/239
f 536/131/72 534/133/73 532/135/73
f 533/134/239 535/132/293 537/130/293
f 534/133/73 536/131/72 538/127/72
f 539/129/289 537/130/293 535/132/293
f 540/128/294 538/127/72 536/131/72
f 537/130/293 539/129/289 540/128/294
f 538/127/72 540/128/294 539/129/289
f 541/216/295 542/221/295 543/222/295
f 543/222/295 544/225/296 545/226/297
f 543/222/295 546/223/295 544/225/296
f 542/221/295 546/223/295 543/222/295
f 546/223/295 542/221/295 547/224/295
f 541/216/295 548/215/295 542/221/295
f 548/215/295 541/216/295 549/217/295
f 548/215/295 549/217/295 550/218/295
f 549/217/295 541/216/295 551/219/295
f 551/219/295 541/216/295 552/220/295
f 553/299/202 554/300/190 555/301/188
f 554/300/190 553/299/202 556/302/298
f 557/303/299 558/304/16 559/305/19
f 559/305/19 560/306/300 557/303/299
f 561/307/301 562/308/15 563/309/302
f 562/308/15 561/307/301 564/310/303
f 565/311/304 566/312/305 567/313/306
f 566/312/305 565/311/304 568/314/307
f 569/300/87 570/302/308 571/315/309
f 569/300/87 571/315/309 572/316/86
f 573/305/89 574/317/96 575/306/310
f 574/317/96 573/305/89 576/318/311
f 577/308/256 578/310/312 579/319/313
f 579/319/313 580/320/314 577/308/256
f 581/321/315 582/312/258 583/322/316
f 582/312/258 581/321/315 584/313/317
f 585/198/295 586/201/295 587/194/295
f 588/193/295 587/194/295 589/195/295
f 590/196/295 587/194/295 588/193/295
f 587/194/295 590/196/295 591/197/295
f 591/197/295 585/198/295 587/194/295
f 592/199/295 585/198/295 591/197/295
f 585/198/295 592/199/295 593/200/295
f 594/202/295 586/201/295 585/198/295
f 595/203/295 594/202/295 596/204/295
f 597/205/295 594/202/295 595/203/295
f 594/202/295 597/205/295 586/201/295
f 598/206/295 586/201/295 597/205/295
f 599/207/295 586/201/295 598/206/295
f 586/201/295 599/207/295 600/208/295
f 601/176/295 602/175/295 603/182/295
f 601/176/295 603/182/295 604/183/296
f 605/174/295 602/175/295 601/176/295
f 602/175/295 605/174/295 606/177/295
f 606/177/295 605/174/295 607/178/295
f 605/174/295 601/176/295 608/179/295
f 608/179/295 601/176/295 609/180/295
f 608/179/295 609/180/295 610/181/295
f 611/184/295 612/185/295 613/183/295
f 612/185/295 611/184/295 614/186/295
f 611/184/295 613/183/295 615/187/295
f 615/187/295 613/183/295 616/182/295
f 617/188/295 615/187/295 616/182/295
f 615/187/295 617/188/295 618/189/295
f 619/170/295 620/323/295 621/321/295
f 620/323/295 619/170/295 622/147/295
f 623/319/295 619/170/295 621/321/295
f 619/170/295 623/319/295 624/167/295
f 625/324/295 624/167/295 623/319/295
f 624/167/295 625/324/295 626/166/295
f 627/165/295 624/167/295 626/166/295
f 628/155/295 627/165/295 626/166/295
f 629/166/295 630/324/295 631/155/295
f 630/324/295 632/307/295 631/155/295
f 633/154/295 631/155/295 632/307/295
f 633/154/295 632/307/295 634/303/295
f 633/154/295 634/303/295 635/325/295
f 633/154/295 635/325/295 636/162/295
f 637/163/295 633/154/295 636/162/295
f 638/164/295 637/163/295 636/162/295
f 639/142/295 640/143/295 641/299/295
f 640/143/295 642/326/295 641/299/295
f 642/326/295 640/143/295 643/151/295
f 644/311/295 639/142/295 641/299/295
f 645/323/295 639/142/295 644/311/295
f 639/142/295 645/323/295 646/147/295
f 647/164/295 648/315/295 649/153/295
f 650/326/295 649/153/295 648/315/295
f 649/153/295 650/326/295 651/151/295
f 648/315/295 647/164/295 652/317/295
f 647/164/295 653/325/295 652/317/295
f 653/325/295 647/164/295 654/162/295
f 655/170/295 656/173/295 657/147/295
f 658/173/295 659/142/295 660/147/295
f 661/143/295 662/152/295 663/151/295
f 664/152/295 665/153/295 666/151/295
f 667/303/295 668/306/295 669/325/295
f 670/306/295 671/317/295 672/325/295
f 673/311/295 674/313/295 675/323/295
f 676/313/295 677/321/295 678/323/295
f 679/319/295 680/310/295 681/324/295
f 682/310/295 683/307/295 684/324/295
f 685/315/295 686/302/295 687/326/295
f 688/302/295 689/299/295 690/326/295
